<?xml version="1.0" standalone="no"?>
<!DOCTYPE svg PUBLIC "-//W3C//DTD SVG 20010904//EN"
 "http://www.w3.org/TR/2001/REC-SVG-20010904/DTD/svg10.dtd">
<svg version="1.0" xmlns="http://www.w3.org/2000/svg"
 width="500.000000pt" height="500.000000pt" viewBox="0 0 500.000000 500.000000"
 preserveAspectRatio="xMidYMid meet">

<g transform="translate(0.000000,500.000000) scale(0.100000,-0.100000)"
fill="#000000" stroke="none">
<path d="M685 3075 c-22 -8 -50 -27 -62 -42 -26 -32 -25 1 -24 -521 1 -320 3
-365 17 -388 35 -52 34 -52 575 -60 277 -4 534 -4 571 0 55 6 73 13 105 41
l38 33 0 428 c0 403 -2 431 -19 457 -43 63 -27 62 -621 64 -448 2 -547 0 -580
-12z m1148 -74 c7 -7 -15 -38 -69 -97 -230 -252 -323 -361 -324 -376 0 -9 15
-28 33 -43 17 -15 88 -82 157 -149 69 -67 138 -131 154 -143 17 -14 26 -28 23
-38 -5 -13 -76 -15 -534 -17 -290 -2 -536 -1 -545 1 -38 7 -13 43 112 163 92
88 129 130 125 141 -13 32 -36 27 -88 -21 -131 -120 -207 -183 -208 -170 -4
55 4 605 9 610 4 4 52 -42 107 -103 82 -90 104 -109 125 -107 50 6 34 35 -92
169 -135 143 -160 176 -141 187 18 11 1144 5 1156 -7z m9 -258 c9 -226 3 -506
-10 -511 -7 -2 -12 1 -12 7 0 5 -66 71 -147 147 -82 75 -150 141 -152 146 -2
6 26 40 61 77 36 36 104 112 152 169 49 56 91 102 96 102 4 0 9 -62 12 -137z"/>
<path d="M1469 2792 c-24 -26 -71 -79 -104 -117 -103 -121 -178 -195 -194
-195 -9 0 -45 27 -81 60 -69 63 -95 73 -105 39 -5 -14 4 -36 28 -72 62 -92
147 -187 167 -187 12 0 53 46 126 143 59 78 110 144 114 147 3 3 31 37 60 75
30 39 62 79 72 89 21 23 23 37 6 54 -22 22 -45 13 -89 -36z"/>
<path d="M2235 3022 c-94 -45 -138 -147 -101 -233 32 -74 101 -119 183 -119
87 0 160 61 183 152 11 43 10 52 -13 102 -32 69 -83 105 -158 112 -40 4 -64 0
-94 -14z m145 -91 c40 -40 48 -76 24 -120 -26 -49 -75 -73 -117 -58 -57 19
-82 60 -72 117 15 87 106 121 165 61z"/>
<path d="M2681 3025 c-24 -11 -37 -12 -41 -5 -4 6 -25 10 -46 8 l-39 -3 -3
-159 c-3 -175 1 -189 52 -184 l31 3 5 122 c4 107 7 124 25 137 25 19 65 20 88
4 14 -11 17 -35 19 -138 l3 -125 40 0 40 0 5 123 c5 135 13 152 70 152 57 0
65 -17 70 -152 l5 -123 40 0 40 0 -4 125 c-2 71 -9 139 -16 157 -28 67 -111
90 -185 50 -44 -23 -45 -23 -70 -5 -36 26 -88 31 -129 13z"/>
<path d="M3256 3030 c-33 -10 -82 -54 -101 -90 -64 -125 29 -269 174 -270 43
0 131 40 131 59 0 4 -11 18 -24 30 l-25 23 -27 -21 c-29 -23 -70 -27 -107 -10
-27 12 -55 55 -43 66 4 4 51 7 105 5 121 -3 151 6 151 47 0 113 -119 195 -234
161z m121 -70 c4 0 33 -58 33 -65 0 -3 -43 -5 -95 -5 -52 0 -95 3 -95 8 0 18
35 55 63 67 21 8 40 10 61 4 17 -5 32 -9 33 -9z"/>
<path d="M3537 2973 c1 -32 4 -97 6 -145 4 -97 15 -118 76 -144 43 -18 54 -18
100 4 31 16 39 16 50 5 7 -8 27 -13 44 -11 l32 3 3 173 2 172 -45 0 -45 0 0
-125 c0 -122 -1 -125 -25 -141 -35 -23 -88 -12 -103 22 -7 14 -12 73 -12 134
l0 110 -43 0 -43 0 3 -57z"/>
<path d="M3572 2628 c-22 -22 -14 -67 13 -80 37 -17 75 3 75 40 0 35 -16 52
-50 52 -14 0 -31 -5 -38 -12z"/>
<path d="M3773 2602 c-18 -3 -22 -11 -25 -45 -3 -38 -6 -42 -31 -45 -25 -3
-28 -7 -25 -35 2 -24 9 -33 28 -37 23 -6 25 -10 22 -58 -8 -145 37 -222 129
-222 54 0 74 17 65 55 -6 23 -10 25 -45 19 -52 -8 -61 10 -61 120 l0 86 56 0
55 0 -3 33 c-3 31 -4 32 -55 35 l-53 3 0 43 c0 46 -11 55 -57 48z"/>
<path d="M2247 2505 c-79 -20 -127 -83 -127 -166 0 -74 35 -128 105 -160 64
-30 138 -22 188 19 23 20 22 29 -8 48 -23 15 -28 15 -61 -1 -62 -29 -116 -2
-134 66 -12 45 6 101 38 118 30 16 84 13 110 -5 22 -15 25 -15 48 7 19 17 21
25 12 36 -31 37 -107 54 -171 38z"/>
<path d="M2541 2493 c-41 -20 -86 -81 -95 -126 -8 -41 15 -111 47 -145 32 -35
91 -62 133 -62 51 0 119 35 152 78 22 29 27 45 27 98 0 54 -4 67 -30 99 -17
21 -46 46 -65 56 -43 24 -123 24 -169 2z m140 -66 c60 -46 50 -151 -18 -186
-34 -17 -59 -13 -92 15 -50 42 -51 114 -1 164 23 23 85 27 111 7z"/>
<path d="M2860 2340 l0 -170 45 0 45 0 0 116 c0 63 5 124 10 135 11 20 63 26
87 11 24 -15 34 -66 27 -139 -3 -40 -3 -84 0 -98 5 -21 12 -25 46 -25 l40 0 0
124 c0 112 -2 126 -23 157 -12 18 -34 39 -47 46 -31 16 -94 17 -122 2 -14 -8
-23 -8 -31 0 -6 6 -26 11 -44 11 l-33 0 0 -170z"/>
<path d="M3180 2498 c0 -7 31 -83 68 -168 l68 -155 37 -3 c33 -3 38 0 51 30
22 48 116 295 116 302 0 3 -20 6 -44 6 -49 0 -43 9 -92 -132 -15 -43 -28 -78
-29 -78 -2 0 -20 42 -40 93 -20 50 -41 98 -47 105 -6 6 -28 12 -49 12 -25 0
-39 -5 -39 -12z"/>
<path d="M3570 2341 l0 -171 40 0 40 0 -2 168 -3 167 -37 3 -38 3 0 -170z"/>
<path d="M4054 2496 c-89 -40 -119 -170 -61 -258 48 -70 150 -98 226 -60 48
24 60 47 38 69 -17 17 -19 17 -48 0 -17 -9 -45 -17 -62 -17 -42 0 -97 34 -97
60 0 18 8 20 123 22 l122 3 -2 38 c-3 51 -29 103 -65 128 -37 27 -131 35 -174
15z m144 -83 c27 -37 16 -43 -73 -43 -83 0 -84 0 -76 23 12 33 65 57 104 46
18 -5 38 -17 45 -26z"/>
<path d="M3693 2042 c-12 -9 -27 -31 -33 -49 -28 -80 76 -152 150 -104 12 8
12 13 3 22 -10 10 -18 10 -38 -1 -21 -11 -29 -11 -50 0 -20 11 -25 21 -25 51
0 47 23 73 59 65 45 -11 54 -11 58 0 5 14 -40 34 -75 34 -15 0 -37 -8 -49 -18z"/>
<path d="M3888 2045 c-75 -42 -58 -149 25 -170 53 -14 125 50 113 99 -16 65
-85 100 -138 71z m66 -26 c40 -19 44 -77 7 -106 -23 -18 -38 -16 -61 7 -27 27
-26 75 2 94 27 19 21 19 52 5z"/>
<path d="M4120 2050 c-8 -5 -24 -7 -36 -4 -20 5 -22 1 -26 -68 -5 -81 -2 -98
18 -98 9 0 14 18 16 61 3 65 19 88 52 76 12 -5 16 -20 16 -72 0 -58 2 -65 20
-65 17 0 20 7 20 53 0 60 17 91 46 85 16 -3 19 -13 22 -71 3 -59 5 -67 22 -67
18 0 20 7 20 68 0 54 -4 72 -18 85 -20 18 -77 23 -87 8 -3 -6 -19 -4 -38 4
-21 8 -38 10 -47 5z"/>
<path d="M3567 1923 c-13 -12 -7 -41 10 -47 21 -8 48 17 40 38 -6 16 -38 22
-50 9z"/>
</g>
</svg>
